<svg width="28" height="22" viewBox="0 0 28 22" fill="none" xmlns="http://www.w3.org/2000/svg">
<path d="M25.25 1.25C23.8625 0.8125 22.3375 0.625 20.875 0.625C18.4375 0.625 15.8125 1.125 14 2.5C12.1875 1.125 9.5625 0.625 7.125 0.625C4.6875 0.625 2.0625 1.125 0.25 2.5V20.8125C0.25 21.125 0.5625 21.4375 0.875 21.4375C1 21.4375 1.0625 21.375 1.1875 21.375C2.875 20.5625 5.3125 20 7.125 20C9.5625 20 12.1875 20.5 14 21.875C15.6875 20.8125 18.75 20 20.875 20C22.9375 20 25.0625 20.375 26.8125 21.3125C26.9375 21.375 27 21.375 27.125 21.375C27.4375 21.375 27.75 21.0625 27.75 20.75V2.5C27 1.9375 26.1875 1.5625 25.25 1.25ZM25.25 18.125C23.875 17.6875 22.375 17.5 20.875 17.5C18.75 17.5 15.6875 18.3125 14 19.375V5C15.6875 3.9375 18.75 3.125 20.875 3.125C22.375 3.125 23.875 3.3125 25.25 3.75V18.125Z" fill="#3E6FF8"/>
</svg>
